ffmpeg version 3.4.8-0ubuntu0.2 Copyright (c) 2000-2020 the FFmpeg developers
  built with gcc 7 (Ubuntu 7.5.0-3ubuntu1~18.04)
  configuration: --prefix=/usr --extra-version=0ubuntu0.2 --toolchain=hardened --libdir=/usr/lib/x86_64-linux-gnu --incdir=/usr/include/x86_64-linux-gnu --enable-gpl --disable-stripping --enable-avresample --enable-avisynth --enable-gnutls --enable-ladspa --enable-libass --enable-libbluray --enable-libbs2b --enable-libcaca --enable-libcdio --enable-libflite --enable-libfontconfig --enable-libfreetype --enable-libfribidi --enable-libgme --enable-libgsm --enable-libmp3lame --enable-libmysofa --enable-libopenjpeg --enable-libopenmpt --enable-libopus --enable-libpulse --enable-librubberband --enable-librsvg --enable-libshine --enable-libsnappy --enable-libsoxr --enable-libspeex --enable-libssh --enable-libtheora --enable-libtwolame --enable-libvorbis --enable-libvpx --enable-libwavpack --enable-libwebp --enable-libx265 --enable-libxml2 --enable-libxvid --enable-libzmq --enable-libzvbi --enable-omx --enable-openal --enable-opengl --enable-sdl2 --enable-libdc1394 --enable-libdrm --enable-libiec61883 --enable-chromaprint --enable-frei0r --enable-libopencv --enable-libx264 --enable-shared
  libavutil      55. 78.100 / 55. 78.100
  libavcodec     57.107.100 / 57.107.100
  libavformat    57. 83.100 / 57. 83.100
  libavdevice    57. 10.100 / 57. 10.100
  libavfilter     6.107.100 /  6.107.100
  libavresample   3.  7.  0 /  3.  7.  0
  libswscale      4.  8.100 /  4.  8.100
  libswresample   2.  9.100 /  2.  9.100
  libpostproc    54.  7.100 / 54.  7.100
[rawvideo @ 0x55b17d21ca20] Estimating duration from bitrate, this may be inaccurate
Input #0, rawvideo, from '../../SVC-Encoder-20220109T061506Z-001/SVC-Encoder/Dataset/RollerCoaster/6f_2x2/tile_yuv/f5_t3_480x480.yuv':
  Duration: 00:00:10.00, start: 0.000000, bitrate: 82944 kb/s
    Stream #0:0: Video: rawvideo (I420 / 0x30323449), yuv420p, 480x480, 82944 kb/s, 30 tbr, 30 tbn, 30 tbc
Stream mapping:
  Stream #0:0 -> #0:0 (rawvideo (native) -> h264 (libx264))
Press [q] to stop, [?] for help
[libx264 @ 0x55b17d229c60] using cpu capabilities: MMX2 SSE2Fast LZCNT SSSE3 SSE4.2 AVX
[libx264 @ 0x55b17d229c60] profile High, level 3.0
Output #0, rawvideo, to 'RollerCoaster_f5_t3_480x480_x264_QP_40.h264':
  Metadata:
    encoder         : Lavf57.83.100
    Stream #0:0: Video: h264 (libx264), yuv420p, 480x480, q=-1--1, 30 fps, 30 tbn, 30 tbc
    Metadata:
      encoder         : Lavc57.107.100 libx264
    Side data:
      cpb: bitrate max/min/avg: 0/0/0 buffer size: 0 vbv_delay: -1
frame=  148 fps=0.0 q=46.0 PSNR=Y:nan U:nan V:nan *:nan size=      34kB time=00:00:03.50 bitrate=  79.1kbits/s speed=6.94x    frame=  265 fps=264 q=46.0 PSNR=Y:nan U:nan V:nan *:nan size=      68kB time=00:00:07.40 bitrate=  75.0kbits/s speed=7.36x    frame=  300 fps=235 q=46.0 LPSNR=Y:inf U:inf V:inf *:inf size=      91kB time=00:00:09.93 bitrate=  74.8kbits/s speed=7.78x    
video:91kB audio:0kB subtitle:0kB other streams:0kB global headers:0kB muxing overhead: 0.000000%
[libx264 @ 0x55b17d229c60] frame I:2     Avg QP:39.23  size:  4896  PSNR Mean Y:30.77 U:40.27 V:42.32 Avg:32.34 Global:32.25
[libx264 @ 0x55b17d229c60] frame P:76    Avg QP:41.42  size:   624  PSNR Mean Y:29.82 U:40.25 V:41.56 Avg:31.41 Global:31.40
[libx264 @ 0x55b17d229c60] frame B:222   Avg QP:45.53  size:   161  PSNR Mean Y:29.51 U:40.10 V:41.41 Avg:31.11 Global:31.09
[libx264 @ 0x55b17d229c60] consecutive B-frames:  1.3%  0.0%  0.0% 98.7%
[libx264 @ 0x55b17d229c60] mb I  I16..4: 42.1% 56.4%  1.4%
[libx264 @ 0x55b17d229c60] mb P  I16..4:  1.9%  2.2%  0.0%  P16..4: 26.8%  0.8%  0.1%  0.0%  0.0%    skip:68.1%
[libx264 @ 0x55b17d229c60] mb B  I16..4:  0.0%  0.0%  0.0%  B16..8: 14.2%  0.4%  0.0%  direct: 0.0%  skip:85.4%  L0:38.9% L1:61.1% BI: 0.1%
[libx264 @ 0x55b17d229c60] 8x8 transform intra:53.7% inter:95.1%
[libx264 @ 0x55b17d229c60] coded y,uvDC,uvAC intra: 25.2% 42.6% 8.4% inter: 0.8% 1.0% 0.0%
[libx264 @ 0x55b17d229c60] i16 v,h,dc,p: 20% 46% 21% 13%
[libx264 @ 0x55b17d229c60] i8 v,h,dc,ddl,ddr,vr,hd,vl,hu:  5% 20% 38%  2%  9% 15%  5%  2%  4%
[libx264 @ 0x55b17d229c60] i4 v,h,dc,ddl,ddr,vr,hd,vl,hu:  8% 18% 37%  3% 15% 10%  5%  2%  2%
[libx264 @ 0x55b17d229c60] i8c dc,h,v,p: 68% 22%  7%  3%
[libx264 @ 0x55b17d229c60] Weighted P-Frames: Y:0.0% UV:0.0%
[libx264 @ 0x55b17d229c60] ref P L0: 63.2%  8.9% 17.3% 10.6%
[libx264 @ 0x55b17d229c60] ref B L0: 80.9% 15.4%  3.7%
[libx264 @ 0x55b17d229c60] ref B L1: 85.4% 14.6%
[libx264 @ 0x55b17d229c60] PSNR Mean Y:29.598 U:40.140 V:41.458 Avg:31.195 Global:31.175 kb/s:74.27
